<svg width="782" height="786" viewBox="0 0 782 786" fill="none" xmlns="http://www.w3.org/2000/svg">
<path opacity="0.07" d="M639.213 524.641C556.125 668.555 366.908 714.864 216.586 628.075C66.2646 541.287 98.7539 404.491 181.842 260.578C264.931 116.665 367.154 20.1306 517.476 106.919C667.798 193.707 722.302 380.728 639.213 524.641Z" fill="url(#paint0_linear)"/>
<path opacity="0.1" d="M577.533 494.836C508.947 613.63 332.56 640.194 183.56 554.17C34.5606 468.145 55.5999 351.89 124.186 233.096C192.771 114.302 282.932 37.9535 431.931 123.978C580.931 210.003 646.119 376.042 577.533 494.836Z" fill="url(#paint1_linear)"/>
<path d="M415.024 280.874V283.968H411.888V284.92H415.024V288H415.99V284.92H419.112V283.968H415.99V280.874H415.024Z" fill="#00A359"/>
<path d="M415.024 448.874V451.968H411.888V452.92H415.024V456H415.99V452.92H419.112V451.968H415.99V448.874H415.024Z" fill="#00A359"/>
<path d="M415.024 364.874V367.968H411.888V368.92H415.024V372H415.99V368.92H419.112V367.968H415.99V364.874H415.024Z" fill="#00A359"/>
<path d="M415.024 532.874V535.968H411.888V536.92H415.024V540H415.99V536.92H419.112V535.968H415.99V532.874H415.024Z" fill="#00A359"/>
<path d="M415.024 308.874V311.968H411.888V312.92H415.024V316H415.99V312.92H419.112V311.968H415.99V308.874H415.024Z" fill="#00A359"/>
<path d="M415.024 476.874V479.968H411.888V480.92H415.024V484H415.99V480.92H419.112V479.968H415.99V476.874H415.024Z" fill="#00A359"/>
<path d="M415.024 392.874V395.968H411.888V396.92H415.024V400H415.99V396.92H419.112V395.968H415.99V392.874H415.024Z" fill="#00A359"/>
<path d="M415.024 560.874V563.968H411.888V564.92H415.024V568H415.99V564.92H419.112V563.968H415.99V560.874H415.024Z" fill="#00A359"/>
<path d="M415.024 336.874V339.968H411.888V340.92H415.024V344H415.99V340.92H419.112V339.968H415.99V336.874H415.024Z" fill="#00A359"/>
<path d="M415.024 504.874V507.968H411.888V508.92H415.024V512H415.99V508.92H419.112V507.968H415.99V504.874H415.024Z" fill="#00A359"/>
<path d="M415.024 420.874V423.968H411.888V424.92H415.024V428H415.99V424.92H419.112V423.968H415.99V420.874H415.024Z" fill="#00A359"/>
<path d="M415.024 588.874V591.968H411.888V592.92H415.024V596H415.99V592.92H419.112V591.968H415.99V588.874H415.024Z" fill="#00A359"/>
<path d="M444.024 280.874V283.968H440.888V284.92H444.024V288H444.99V284.92H448.112V283.968H444.99V280.874H444.024Z" fill="#00A359"/>
<path d="M444.024 448.874V451.968H440.888V452.92H444.024V456H444.99V452.92H448.112V451.968H444.99V448.874H444.024Z" fill="#00A359"/>
<path d="M444.024 364.874V367.968H440.888V368.92H444.024V372H444.99V368.92H448.112V367.968H444.99V364.874H444.024Z" fill="#00A359"/>
<path d="M444.024 532.874V535.968H440.888V536.92H444.024V540H444.99V536.92H448.112V535.968H444.99V532.874H444.024Z" fill="#00A359"/>
<path d="M444.024 308.874V311.968H440.888V312.92H444.024V316H444.99V312.92H448.112V311.968H444.99V308.874H444.024Z" fill="#00A359"/>
<path d="M444.024 476.874V479.968H440.888V480.92H444.024V484H444.99V480.92H448.112V479.968H444.99V476.874H444.024Z" fill="#00A359"/>
<path d="M444.024 392.874V395.968H440.888V396.92H444.024V400H444.99V396.92H448.112V395.968H444.99V392.874H444.024Z" fill="#00A359"/>
<path d="M444.024 560.874V563.968H440.888V564.92H444.024V568H444.99V564.92H448.112V563.968H444.99V560.874H444.024Z" fill="#00A359"/>
<path d="M444.024 336.874V339.968H440.888V340.92H444.024V344H444.99V340.92H448.112V339.968H444.99V336.874H444.024Z" fill="#00A359"/>
<path d="M444.024 504.874V507.968H440.888V508.92H444.024V512H444.99V508.92H448.112V507.968H444.99V504.874H444.024Z" fill="#00A359"/>
<path d="M444.024 420.874V423.968H440.888V424.92H444.024V428H444.99V424.92H448.112V423.968H444.99V420.874H444.024Z" fill="#00A359"/>
<path d="M444.024 588.874V591.968H440.888V592.92H444.024V596H444.99V592.92H448.112V591.968H444.99V588.874H444.024Z" fill="#00A359"/>
<path d="M473.024 280.874V283.968H469.888V284.92H473.024V288H473.99V284.92H477.112V283.968H473.99V280.874H473.024Z" fill="#00A359"/>
<path d="M473.024 448.874V451.968H469.888V452.92H473.024V456H473.99V452.92H477.112V451.968H473.99V448.874H473.024Z" fill="#00A359"/>
<path d="M473.024 364.874V367.968H469.888V368.92H473.024V372H473.99V368.92H477.112V367.968H473.99V364.874H473.024Z" fill="#00A359"/>
<path d="M473.024 532.874V535.968H469.888V536.92H473.024V540H473.99V536.92H477.112V535.968H473.99V532.874H473.024Z" fill="#00A359"/>
<path d="M473.024 308.874V311.968H469.888V312.92H473.024V316H473.99V312.92H477.112V311.968H473.99V308.874H473.024Z" fill="#00A359"/>
<path d="M473.024 476.874V479.968H469.888V480.92H473.024V484H473.99V480.92H477.112V479.968H473.99V476.874H473.024Z" fill="#00A359"/>
<path d="M473.024 392.874V395.968H469.888V396.92H473.024V400H473.99V396.92H477.112V395.968H473.99V392.874H473.024Z" fill="#00A359"/>
<path d="M473.024 560.874V563.968H469.888V564.92H473.024V568H473.99V564.92H477.112V563.968H473.99V560.874H473.024Z" fill="#00A359"/>
<path d="M473.024 336.874V339.968H469.888V340.92H473.024V344H473.99V340.92H477.112V339.968H473.99V336.874H473.024Z" fill="#00A359"/>
<path d="M473.024 504.874V507.968H469.888V508.92H473.024V512H473.99V508.92H477.112V507.968H473.99V504.874H473.024Z" fill="#00A359"/>
<path d="M473.024 420.874V423.968H469.888V424.92H473.024V428H473.99V424.92H477.112V423.968H473.99V420.874H473.024Z" fill="#00A359"/>
<path d="M473.024 588.874V591.968H469.888V592.92H473.024V596H473.99V592.92H477.112V591.968H473.99V588.874H473.024Z" fill="#00A359"/>
<path d="M502.024 280.874V283.968H498.888V284.92H502.024V288H502.99V284.92H506.112V283.968H502.99V280.874H502.024Z" fill="#00A359"/>
<path d="M502.024 448.874V451.968H498.888V452.92H502.024V456H502.99V452.92H506.112V451.968H502.99V448.874H502.024Z" fill="#00A359"/>
<path d="M502.024 364.874V367.968H498.888V368.92H502.024V372H502.99V368.92H506.112V367.968H502.99V364.874H502.024Z" fill="#00A359"/>
<path d="M502.024 532.874V535.968H498.888V536.92H502.024V540H502.99V536.92H506.112V535.968H502.99V532.874H502.024Z" fill="#00A359"/>
<path d="M502.024 308.874V311.968H498.888V312.92H502.024V316H502.99V312.92H506.112V311.968H502.99V308.874H502.024Z" fill="#00A359"/>
<path d="M502.024 476.874V479.968H498.888V480.92H502.024V484H502.99V480.92H506.112V479.968H502.99V476.874H502.024Z" fill="#00A359"/>
<path d="M502.024 392.874V395.968H498.888V396.92H502.024V400H502.99V396.92H506.112V395.968H502.99V392.874H502.024Z" fill="#00A359"/>
<path d="M502.024 560.874V563.968H498.888V564.92H502.024V568H502.99V564.92H506.112V563.968H502.99V560.874H502.024Z" fill="#00A359"/>
<path d="M502.024 336.874V339.968H498.888V340.92H502.024V344H502.99V340.92H506.112V339.968H502.99V336.874H502.024Z" fill="#00A359"/>
<path d="M502.024 504.874V507.968H498.888V508.92H502.024V512H502.99V508.92H506.112V507.968H502.99V504.874H502.024Z" fill="#00A359"/>
<path d="M502.024 420.874V423.968H498.888V424.92H502.024V428H502.99V424.92H506.112V423.968H502.99V420.874H502.024Z" fill="#00A359"/>
<path d="M502.024 588.874V591.968H498.888V592.92H502.024V596H502.99V592.92H506.112V591.968H502.99V588.874H502.024Z" fill="#00A359"/>
<path d="M531.024 280.874V283.968H527.888V284.92H531.024V288H531.99V284.92H535.112V283.968H531.99V280.874H531.024Z" fill="#00A359"/>
<path d="M531.024 448.874V451.968H527.888V452.92H531.024V456H531.99V452.92H535.112V451.968H531.99V448.874H531.024Z" fill="#00A359"/>
<path d="M531.024 364.874V367.968H527.888V368.92H531.024V372H531.99V368.92H535.112V367.968H531.99V364.874H531.024Z" fill="#00A359"/>
<path d="M531.024 532.874V535.968H527.888V536.92H531.024V540H531.99V536.92H535.112V535.968H531.99V532.874H531.024Z" fill="#00A359"/>
<path d="M531.024 308.874V311.968H527.888V312.92H531.024V316H531.99V312.92H535.112V311.968H531.99V308.874H531.024Z" fill="#00A359"/>
<path d="M531.024 476.874V479.968H527.888V480.92H531.024V484H531.99V480.92H535.112V479.968H531.99V476.874H531.024Z" fill="#00A359"/>
<path d="M531.024 392.874V395.968H527.888V396.92H531.024V400H531.99V396.92H535.112V395.968H531.99V392.874H531.024Z" fill="#00A359"/>
<path d="M531.024 560.874V563.968H527.888V564.92H531.024V568H531.99V564.92H535.112V563.968H531.99V560.874H531.024Z" fill="#00A359"/>
<path d="M531.024 336.874V339.968H527.888V340.92H531.024V344H531.99V340.92H535.112V339.968H531.99V336.874H531.024Z" fill="#00A359"/>
<path d="M531.024 504.874V507.968H527.888V508.92H531.024V512H531.99V508.92H535.112V507.968H531.99V504.874H531.024Z" fill="#00A359"/>
<path d="M531.024 420.874V423.968H527.888V424.92H531.024V428H531.99V424.92H535.112V423.968H531.99V420.874H531.024Z" fill="#00A359"/>
<path d="M531.024 588.874V591.968H527.888V592.92H531.024V596H531.99V592.92H535.112V591.968H531.99V588.874H531.024Z" fill="#00A359"/>
<path d="M560.024 280.874V283.968H556.888V284.92H560.024V288H560.99V284.92H564.112V283.968H560.99V280.874H560.024Z" fill="#00A359"/>
<path d="M560.024 448.874V451.968H556.888V452.92H560.024V456H560.99V452.92H564.112V451.968H560.99V448.874H560.024Z" fill="#00A359"/>
<path d="M560.024 364.874V367.968H556.888V368.92H560.024V372H560.99V368.92H564.112V367.968H560.99V364.874H560.024Z" fill="#00A359"/>
<path d="M560.024 532.874V535.968H556.888V536.92H560.024V540H560.99V536.92H564.112V535.968H560.99V532.874H560.024Z" fill="#00A359"/>
<path d="M560.024 308.874V311.968H556.888V312.92H560.024V316H560.99V312.92H564.112V311.968H560.99V308.874H560.024Z" fill="#00A359"/>
<path d="M560.024 476.874V479.968H556.888V480.92H560.024V484H560.99V480.92H564.112V479.968H560.99V476.874H560.024Z" fill="#00A359"/>
<path d="M560.024 392.874V395.968H556.888V396.92H560.024V400H560.99V396.92H564.112V395.968H560.99V392.874H560.024Z" fill="#00A359"/>
<path d="M560.024 560.874V563.968H556.888V564.92H560.024V568H560.99V564.92H564.112V563.968H560.99V560.874H560.024Z" fill="#00A359"/>
<path d="M560.024 336.874V339.968H556.888V340.92H560.024V344H560.99V340.92H564.112V339.968H560.99V336.874H560.024Z" fill="#00A359"/>
<path d="M560.024 504.874V507.968H556.888V508.92H560.024V512H560.99V508.92H564.112V507.968H560.99V504.874H560.024Z" fill="#00A359"/>
<path d="M560.024 420.874V423.968H556.888V424.92H560.024V428H560.99V424.92H564.112V423.968H560.99V420.874H560.024Z" fill="#00A359"/>
<path d="M560.024 588.874V591.968H556.888V592.92H560.024V596H560.99V592.92H564.112V591.968H560.99V588.874H560.024Z" fill="#00A359"/>
<defs>
<linearGradient id="paint0_linear" x1="560.973" y1="132.032" x2="260.083" y2="653.188" gradientUnits="userSpaceOnUse">
<stop stop-color="#00A359"/>
<stop offset="1" stop-color="#00A359" stop-opacity="0.56"/>
</linearGradient>
<linearGradient id="paint1_linear" x1="475.045" y1="148.87" x2="226.674" y2="579.061" gradientUnits="userSpaceOnUse">
<stop stop-color="#00A359"/>
<stop offset="1" stop-color="#00A359" stop-opacity="0.56"/>
</linearGradient>
</defs>
</svg>
